<?xml version="1.0" encoding="utf-8"?>
<!-- Generator: Adobe Illustrator 21.1.0, SVG Export Plug-In . SVG Version: 6.00 Build 0)  -->
<svg version="1.1" id="Calque_1" xmlns="http://www.w3.org/2000/svg" xmlns:xlink="http://www.w3.org/1999/xlink" x="0px" y="0px"
	 viewBox="0 0 640 480" style="enable-background:new 0 0 640 480;" xml:space="preserve">
<style type="text/css">
	.st0{fill:#FFFFFF;}
	.st1{fill:#E81F42;}
	.st2{font-family:'Impact';}
	.st3{font-size:91.0789px;}
	.st4{letter-spacing:9.1;}
</style>
<path class="st0" d="M235,157c-8.3-5.2-19.4-7.7-34-7.7h-35.9v70H201c7.7,0,14.4-0.7,20.2-2.2c6-1.5,11.1-3.9,15.1-6.9
	c4.2-3.2,7.4-7.2,9.5-11.9c1.9-4.5,2.9-9.7,2.9-15.3C248.7,171.6,243.9,162.7,235,157z M209.2,197.7c-1.6,0.4-3.2,0.6-4.6,0.7
	c-1.6,0.1-2.9,0.2-3.9,0.2h-11.4v-28.7h11.7c4.2,0,7.8,0.4,10.5,1.1c2.5,0.7,4.4,1.6,5.8,2.8c1.3,1.1,2.2,2.3,2.7,3.8
	c0.7,1.8,1,3.9,1,6.3c0,2.4-0.3,4.4-1,5.9c-0.7,1.6-1.5,2.8-2.5,3.8c-1,1-2.2,1.8-3.5,2.4C212.3,196.8,210.7,197.3,209.2,197.7z"/>
<rect x="383" y="149.3" class="st0" width="24" height="70"/>
<path class="st1" d="M469.3,164c2-2.2,10.2-10.8,11.9-12.4c6.1-5.8,15.2-5.8,20.9-0.1c5.8,5.8,5.6,15-0.5,21.1
	c-5,5-16.7,16.7-21.7,21.7c-6.1,6.1-14.9,6.3-21,0.3c-5.3-5.1-17.4-17.2-22.5-22.5c-5.7-5.9-5.5-15,0.2-20.7
	c5.7-5.7,14.8-5.6,20.7,0.1C459,153.1,467.3,161.7,469.3,164z"/>
<path class="st0" d="M469.3,204.7c-2,2.2-10.2,10.8-11.9,12.4c-6.1,5.8-15.2,5.8-20.9,0.1c-5.8-5.8-5.6-15,0.5-21.1
	c5-5,16.7-16.7,21.7-21.7c6.1-6.1,14.9-6.3,21-0.3c5.3,5.1,17.4,17.2,22.5,22.5c5.7,5.9,5.5,15-0.2,20.7c-5.7,5.7-14.8,5.6-20.7-0.1
	C479.7,215.6,471.4,207,469.3,204.7z"/>
<path class="st0" d="M531.6,149.3v69.3h71.1v-69.3H531.6z M578.4,195h-22.7v-22.7h22.7V195z"/>
<path class="st0" d="M343.7,157c-8.3-5.2-19.4-7.7-34-7.7h-35.9v70h35.9c7.7,0,14.4-0.7,20.2-2.2c6-1.5,11.1-3.9,15.1-6.9
	c4.2-3.2,7.4-7.2,9.5-11.9c1.9-4.5,2.9-9.7,2.9-15.3C357.4,171.6,352.7,162.7,343.7,157z M317.9,197.7c-1.6,0.4-3.2,0.6-4.6,0.7
	c-1.6,0.1-2.9,0.2-3.9,0.2h-11.4v-28.7h11.7c4.2,0,7.8,0.4,10.5,1.1c2.5,0.7,4.4,1.6,5.8,2.8c1.3,1.1,2.2,2.3,2.7,3.8
	c0.7,1.8,1,3.9,1,6.3c0,2.4-0.3,4.4-1,5.9c-0.7,1.6-1.5,2.8-2.5,3.8c-1,1-2.2,1.8-3.5,2.4C321.1,196.8,319.5,197.3,317.9,197.7z"/>
<path class="st0" d="M98.9,149.2H75.9L35,219.3h27.2h49.6h28.2L98.9,149.2z M73.7,198l13.8-25.7l15.7,25.7H73.7z"/>
<text transform="matrix(1.1 0 0 1 407.8809 309.0918)" class="st0 st2 st3 st4">PRM</text>
</svg>
